<?xml version="1.0" encoding="UTF-8" standalone="no"?>
<svg
   version="1.1"
   preserveAspectRatio="none"
   x="0px"
   y="0px"
   width="40.399994"
   height="40.450001"
   viewBox="0 0 40.399994 40.45"
   id="svg1287"
   xmlns:xlink="http://www.w3.org/1999/xlink"
   xmlns="http://www.w3.org/2000/svg"
   xmlns:svg="http://www.w3.org/2000/svg">
  <defs
     id="defs1064">
    <g
       id="Layer0_64_MEMBER_1_FILL">
      <path
         fill="#a18218"
         stroke="none"
         d="m 503.45,67 q -0.85,0 -1.4,0.55 -0.6,0.55 -0.6,1.35 v 3.35 q 0,0.6 0.35,1.15 -4.95,13.45 -4.4,21.25 0,1.8 0.3,3.6 -0.05,0 -0.1,0.1 -0.6,0.5 -0.6,1.3 v 2.95 q 0,0.8 0.6,1.4 0.55,0.55 1.4,0.55 h 3.3 q 2.8,1.4 5.65,2.6 5.65,2.45 11.3,3.9 0.85,0.2 1.65,0.45 4.45,1 8.9,1.5 0.2,0 0.45,0 4.4,-0.5 8.8,-1.5 0.85,-0.2 1.7,-0.45 8.5,-2.2 17,-6.5 H 561 q 0.85,0 1.45,-0.55 0.55,-0.6 0.55,-1.4 v -2.95 q 0,-0.8 -0.55,-1.3 -0.1,-0.1 -0.15,-0.15 0.3,-1.75 0.25,-3.55 V 94.6 q 0.5,-7.8 -4.35,-21.2 0.4,-0.5 0.4,-1.15 V 68.9 q 0,-0.8 -0.55,-1.35 Q 557.45,67 556.6,67 h -53.15 m 7.3,1.9 h 6.4 25.65 6.4 7.4 v 3.35 h -0.95 q 5.4,14.25 4.9,22.3 0.1,2.6 -0.65,5.1 h 1.1 v 2.95 h -3.75 q -5.2,2.7 -10.4,4.55 h -0.05 q -3.95,1.4 -7.9,2.4 -4.45,1.05 -8.9,1.5 -4.45,-0.45 -8.95,-1.5 -3.95,-1 -7.85,-2.4 -5.25,-1.85 -10.45,-4.55 H 499 v -2.95 h 1.05 q -0.7,-2.5 -0.65,-5.1 -0.5,-8.05 4.95,-22.3 h -0.9 V 68.9 Z"
         id="path397" />
      <path
         fill="#956635"
         stroke="none"
         d="M 500.05,99.65 H 499 v 2.95 h 3.75 q -1.05,-0.55 -2.1,-1.15 -0.35,-0.9 -0.6,-1.8 m 59.35,1.8 q -1.05,0.6 -2.15,1.15 H 561 v -2.95 h -1.1 q -0.2,0.9 -0.5,1.8 M 549.2,68.9 v 3.35 h 6.45 0.95 V 68.9 h -7.4 m -38.45,3.35 V 68.9 h -7.3 v 3.35 h 0.9 6.4 m 6.4,-3.35 v 3.35 H 542.8 V 68.9 Z"
         id="path398" />
      <path
         fill="#e0b423"
         stroke="none"
         d="m 542.8,72.25 h -25.65 l -3.95,34.9 q 3.9,1.4 7.85,2.4 4.5,1.05 8.95,1.5 4.45,-0.45 8.9,-1.5 3.95,-1 7.9,-2.4 h 0.05 l -4.05,-34.9 m -17.15,8.9 q 0.25,0 0.4,0.2 l 1.65,1.6 q 0.2,0.2 0.2,0.45 0,0.25 -0.2,0.45 l -0.6,0.6 3.15,3.1 3.1,-3.1 -0.6,-0.6 q -0.2,-0.2 -0.15,-0.45 0,-0.25 0.15,-0.45 l 1.65,-1.6 q 0.2,-0.2 0.45,-0.2 0.25,0 0.4,0.2 l 4.2,4.15 q 0.2,0.2 0.15,0.45 0.05,0.25 -0.15,0.4 L 537.8,88 q -0.15,0.2 -0.45,0.2 -0.2,0 -0.4,-0.2 l -0.6,-0.55 -3.1,3.1 3.1,3.15 0.6,-0.6 q 0.2,-0.2 0.4,-0.2 0.3,0 0.45,0.2 l 1.65,1.6 q 0.2,0.2 0.2,0.45 0,0.25 -0.2,0.45 l -4.2,4.15 q -0.15,0.2 -0.4,0.2 -0.25,0 -0.45,-0.2 l -1.65,-1.6 q -0.15,-0.2 -0.15,-0.45 0,-0.25 0.15,-0.45 l 0.6,-0.6 -3.1,-3.1 -3.15,3.15 0.6,0.55 q 0.2,0.2 0.2,0.45 0,0.25 -0.2,0.45 l -1.65,1.6 q -0.15,0.2 -0.45,0.2 -0.2,0 -0.4,-0.2 L 521,95.6 q -0.15,-0.2 -0.15,-0.45 0,-0.25 0.15,-0.45 l 1.65,-1.6 q 0.2,-0.2 0.45,-0.2 0.2,0 0.4,0.2 l 0.6,0.6 3.15,-3.15 -3.15,-3.15 -0.6,0.6 q -0.15,0.2 -0.4,0.2 -0.25,0 -0.45,-0.2 L 521,86.35 q -0.15,-0.15 -0.15,-0.4 0,-0.25 0.15,-0.45 l 4.2,-4.15 q 0.2,-0.2 0.45,-0.2 m 30,-8.9 h -6.45 l 10.2,29.2 q 0.3,-0.9 0.5,-1.8 0.75,-2.5 0.65,-5.1 0.5,-8.05 -4.9,-22.3 m -51.3,0 q -5.45,14.25 -4.95,22.3 -0.05,2.6 0.65,5.1 0.25,0.9 0.6,1.8 l 10.1,-29.2 z"
         id="path399" />
      <path
         fill="#ffffff"
         stroke="none"
         d="m 526.05,81.35 q -0.15,-0.2 -0.4,-0.2 -0.25,0 -0.45,0.2 L 521,85.5 q -0.15,0.2 -0.15,0.45 0,0.25 0.15,0.4 l 1.65,1.65 q 0.2,0.2 0.45,0.2 0.25,0 0.4,-0.2 l 0.6,-0.6 3.15,3.15 -3.15,3.15 -0.6,-0.6 q -0.2,-0.2 -0.4,-0.2 -0.25,0 -0.45,0.2 L 521,94.7 q -0.15,0.2 -0.15,0.45 0,0.25 0.15,0.45 l 4.2,4.15 q 0.2,0.2 0.4,0.2 0.3,0 0.45,-0.2 l 1.65,-1.6 q 0.2,-0.2 0.2,-0.45 0,-0.25 -0.2,-0.45 l -0.6,-0.55 3.15,-3.15 3.1,3.1 -0.6,0.6 q -0.15,0.2 -0.15,0.45 0,0.25 0.15,0.45 l 1.65,1.6 q 0.2,0.2 0.45,0.2 0.25,0 0.4,-0.2 l 4.2,-4.15 q 0.2,-0.2 0.2,-0.45 0,-0.25 -0.2,-0.45 l -1.65,-1.6 q -0.15,-0.2 -0.45,-0.2 -0.2,0 -0.4,0.2 l -0.6,0.6 -3.1,-3.15 3.1,-3.1 0.6,0.55 q 0.2,0.2 0.4,0.2 0.3,0 0.45,-0.2 l 1.65,-1.65 q 0.2,-0.15 0.15,-0.4 0.05,-0.25 -0.15,-0.45 l -4.2,-4.15 q -0.15,-0.2 -0.4,-0.2 -0.25,0 -0.45,0.2 l -1.65,1.6 q -0.15,0.2 -0.15,0.45 -0.05,0.25 0.15,0.45 l 0.6,0.6 -3.1,3.1 -3.15,-3.1 0.6,-0.6 q 0.2,-0.2 0.2,-0.45 0,-0.25 -0.2,-0.45 z"
         id="path400" />
      <path
         fill="#e7ba23"
         stroke="none"
         d="m 549.2,72.25 h -6.4 l 4.05,34.9 q 5.2,-1.85 10.4,-4.55 1.1,-0.55 2.15,-1.15 l -10.2,-29.2 m -32.05,0 h -6.4 l -10.1,29.2 q 1.05,0.6 2.1,1.15 5.2,2.7 10.45,4.55 z"
         id="path401" />
      <path
         fill="#af783e"
         stroke="none"
         d="M 549.2,72.25 V 68.9 h -6.4 v 3.35 h 6.4 M 517.15,68.9 h -6.4 v 3.35 h 6.4 z"
         id="path402" />
    </g>
    <g
       id="Layer0_98_MEMBER_0_FILL">
      <path
         fill="#ff5f4f"
         stroke="none"
         d="m 1220.2,68.95 q 0,-4 -2.75,-7.25 -0.3,-4.2 -3.1,-7 -2.85,-2.85 -7.05,-3.15 -3.25,-2.8 -7.25,-2.8 -4.05,0 -7.25,2.8 -4.25,0.3 -7.05,3.1 -2.9,2.9 -3.2,7.1 -2.75,3.2 -2.75,7.2 0,4 2.75,7.15 0.3,4.3 3.2,7.2 2.8,2.8 7.1,3.15 3.15,2.75 7.2,2.75 4,0 7.25,-2.8 4.15,-0.35 7,-3.2 2.8,-2.8 3.15,-7 2.75,-3.2 2.75,-7.25 M 1215.95,63 q 2.25,2.65 2.25,5.95 0,3.3 -2.25,5.95 -0.45,0.5 -0.5,1.15 -0.3,3.4 -2.55,5.75 -2.35,2.3 -5.75,2.6 -0.65,0.05 -1.15,0.5 -2.65,2.3 -5.95,2.3 -3.3,0 -5.85,-2.25 -0.55,-0.45 -1.2,-0.5 -3.5,-0.3 -5.8,-2.55 -2.4,-2.4 -2.65,-5.95 -0.05,-0.65 -0.5,-1.15 -2.25,-2.6 -2.25,-5.85 0,-3.3 2.3,-5.9 0.4,-0.5 0.45,-1.15 0.25,-3.45 2.65,-5.8 2.25,-2.3 5.75,-2.55 0.65,-0.05 1.2,-0.5 2.6,-2.3 5.9,-2.3 3.3,0 5.95,2.35 0.5,0.4 1.15,0.45 3.45,0.25 5.8,2.6 2.25,2.25 2.5,5.7 0.05,0.65 0.5,1.15 z"
         id="path1053" />
      <path
         fill="#f75140"
         stroke="none"
         d="m 1218.2,68.95 q 0,-3.3 -2.25,-5.95 -0.45,-0.5 -0.5,-1.15 -0.25,-3.45 -2.5,-5.7 -2.35,-2.35 -5.8,-2.6 -0.65,-0.05 -1.15,-0.45 -2.65,-2.35 -5.95,-2.35 -3.3,0 -5.9,2.3 -0.55,0.45 -1.2,0.5 -3.5,0.25 -5.75,2.55 -2.4,2.35 -2.65,5.8 -0.05,0.65 -0.45,1.15 -2.3,2.6 -2.3,5.9 0,3.25 2.25,5.85 0.45,0.5 0.5,1.15 0.25,3.55 2.65,5.95 2.3,2.25 5.8,2.55 0.65,0.05 1.2,0.5 2.55,2.25 5.85,2.25 3.3,0 5.95,-2.3 0.5,-0.45 1.15,-0.5 3.4,-0.3 5.75,-2.6 2.25,-2.35 2.55,-5.75 0.05,-0.65 0.5,-1.15 2.25,-2.65 2.25,-5.95 z"
         id="path1054" />
    </g>
    <g
       id="Layer0_98_MEMBER_1_FILL">
      <path
         fill="#ffcc00"
         stroke="none"
         d="m 1204.8,73.75 q 2,-1.95 2,-4.75 0,-2.8 -2,-4.75 -1.95,-2 -4.75,-2 -2.8,0 -4.8,2 -1.9,1.95 -1.9,4.75 0,2.8 1.9,4.75 2,2 4.8,2 2.8,0 4.75,-2 z"
         id="path1055" />
    </g>
    <g
       id="Layer0_99_MEMBER_0_FILL">
      <path
         fill="#ff5f4f"
         stroke="none"
         d="m 1211.75,112.45 q -0.6,0 -1.15,0.05 -0.8,-1.15 -1.8,-2.2 -3.65,-3.6 -8.8,-3.6 -5.15,0 -8.75,3.6 -1.05,1.05 -1.75,2.2 -0.6,-0.05 -1.25,-0.05 -5,0 -8.5,3.5 -3.5,3.55 -3.5,8.5 0,0.65 0.05,1.25 -1.2,0.7 -2.2,1.75 -3.65,3.65 -3.65,8.8 0,5.15 3.65,8.75 1,1.05 2.2,1.75 -0.05,0.6 -0.05,1.25 0,5 3.5,8.5 3.5,3.55 8.5,3.55 0.65,0 1.25,-0.1 0.75,1.15 1.75,2.2 3.6,3.65 8.75,3.65 5.15,0 8.8,-3.65 1,-1.05 1.75,-2.2 0.6,0.1 1.2,0.1 5,0 8.5,-3.55 3.55,-3.5 3.55,-8.5 0,-0.65 -0.05,-1.25 1.15,-0.7 2.2,-1.75 3.6,-3.6 3.6,-8.75 0,-5.15 -3.6,-8.8 -1.05,-1.05 -2.2,-1.75 0.05,-0.6 0.05,-1.25 0,-4.95 -3.55,-8.5 -3.5,-3.5 -8.5,-3.5 m -0.95,2.05 q 0.45,-0.05 0.95,-0.05 4.15,0 7.1,2.95 2.95,2.95 2.95,7.05 0,0.55 -0.05,1.1 -0.05,0.55 0.25,1.05 0.25,0.5 0.7,0.8 0.95,0.6 1.85,1.5 v -0.05 q 3,3.05 3,7.4 0,4.3 -3,7.35 -0.9,0.85 -1.85,1.45 -0.45,0.3 -0.7,0.8 -0.3,0.5 -0.25,1.1 0.05,0.5 0.05,1.05 0,4.15 -2.95,7.1 -2.95,2.95 -7.1,2.95 -0.45,0 -0.85,-0.05 -0.6,-0.1 -1.15,0.15 -0.55,0.2 -0.85,0.7 -0.7,0.95 -1.5,1.9 -0.05,0 -0.05,0.05 -3.1,3 -7.35,3 -4.3,0 -7.3,-3 v -0.05 q -0.9,-0.9 -1.5,-1.9 -0.35,-0.5 -0.9,-0.7 -0.55,-0.25 -1.1,-0.15 -0.45,0.05 -0.95,0.05 -4.15,0 -7.05,-2.95 -2.95,-2.95 -2.95,-7.1 0,-0.55 0.05,-1.05 0.05,-0.6 -0.2,-1.1 -0.3,-0.55 -0.8,-0.8 -0.95,-0.6 -1.75,-1.4 0,-0.05 -0.05,-0.05 -3.05,-3.05 -3.05,-7.35 0,-4.3 3.1,-7.35 v -0.05 q 0.8,-0.85 1.75,-1.4 0.5,-0.3 0.8,-0.8 0.25,-0.55 0.2,-1.1 -0.05,-0.55 -0.05,-1.1 0,-4.15 2.95,-7.1 v 0.05 q 2.9,-2.95 7.05,-2.95 0.55,0 1.1,0.05 0.55,0.05 1.05,-0.2 0.5,-0.3 0.8,-0.75 0.6,-0.95 1.5,-1.8 3,-3.05 7.3,-3.05 4.3,0 7.35,3 l 0.05,0.05 q 0.85,0.9 1.55,1.9 0.3,0.45 0.8,0.65 0.5,0.25 1.05,0.2 z"
         id="path1056" />
      <path
         fill="#f75140"
         stroke="none"
         d="m 1211.75,114.45 q -0.5,0 -0.95,0.05 -0.55,0.05 -1.05,-0.2 -0.5,-0.2 -0.8,-0.65 -0.7,-1 -1.55,-1.9 l -0.05,-0.05 q -3.05,-3 -7.35,-3 -4.3,0 -7.3,3.05 -0.9,0.85 -1.5,1.8 -0.3,0.45 -0.8,0.75 -0.5,0.25 -1.05,0.2 -0.55,-0.05 -1.1,-0.05 -4.15,0 -7.05,2.95 v -0.05 q -2.95,2.95 -2.95,7.1 0,0.55 0.05,1.1 0.05,0.55 -0.2,1.1 -0.3,0.5 -0.8,0.8 -0.95,0.55 -1.75,1.4 v 0.05 q -3.1,3.05 -3.1,7.35 0,4.3 3.05,7.35 0.05,0 0.05,0.05 0.8,0.8 1.75,1.4 0.5,0.25 0.8,0.8 0.25,0.5 0.2,1.1 -0.05,0.5 -0.05,1.05 0,4.15 2.95,7.1 2.9,2.95 7.05,2.95 0.5,0 0.95,-0.05 0.55,-0.1 1.1,0.15 0.55,0.2 0.9,0.7 0.6,1 1.5,1.9 v 0.05 q 3,3 7.3,3 4.25,0 7.35,-3 0,-0.05 0.05,-0.05 0.8,-0.95 1.5,-1.9 0.3,-0.5 0.85,-0.7 0.55,-0.25 1.15,-0.15 0.4,0.05 0.85,0.05 4.15,0 7.1,-2.95 2.95,-2.95 2.95,-7.1 0,-0.55 -0.05,-1.05 -0.05,-0.6 0.25,-1.1 0.25,-0.5 0.7,-0.8 0.95,-0.6 1.85,-1.45 3,-3.05 3,-7.35 0,-4.35 -3,-7.4 v 0.05 q -0.9,-0.9 -1.85,-1.5 -0.45,-0.3 -0.7,-0.8 -0.3,-0.5 -0.25,-1.05 0.05,-0.55 0.05,-1.1 0,-4.1 -2.95,-7.05 -2.95,-2.95 -7.1,-2.95 z"
         id="path1057" />
    </g>
    <g
       id="Layer0_99_MEMBER_1_FILL">
      <path
         fill="#ff9900"
         stroke="none"
         d="m 1197.25,120.35 q -6.6,-1.15 -10.45,2.65 -3.85,3.85 -2.65,10.45 0.2,1.4 0.65,2.75 -0.45,1.35 -0.7,2.85 -1.2,6.55 2.7,10.4 3.8,3.85 10.45,2.75 1.45,-0.35 2.75,-0.8 1.4,0.55 2.85,0.7 6.55,1.15 10.4,-2.7 3.85,-3.8 2.7,-10.4 -0.25,-1.4 -0.75,-2.8 0.5,-1.35 0.7,-2.7 1.15,-6.65 -2.65,-10.5 -3.9,-3.85 -10.5,-2.65 -1.4,0.2 -2.75,0.65 -1.35,-0.45 -2.75,-0.65 z"
         id="path1058" />
    </g>
    <g
       id="Layer0_99_MEMBER_2_MEMBER_0_FILL">
      <path
         fill="#ff9900"
         stroke="none"
         d="m 1213.55,119.4 q -7,5.65 -15.9,14.55 -8.9,8.9 -14.5,15.85 -5.55,7 -4.6,7.95 0.95,1 7.9,-4.65 6.95,-5.6 15.85,-14.5 8.9,-8.9 14.55,-15.9 5.6,-6.95 4.65,-7.95 -0.95,-0.95 -7.95,4.65 z"
         id="path1059" />
    </g>
    <g
       id="Layer0_99_MEMBER_2_MEMBER_1_FILL">
      <path
         fill="#ff9900"
         stroke="none"
         d="m 1183.15,122.7 q 5.65,6.95 14.55,15.85 8.9,8.9 15.85,14.55 7,5.6 7.95,4.65 1,-0.95 -4.65,-7.95 -5.6,-7 -14.5,-15.9 -8.9,-8.9 -15.9,-14.5 -6.95,-5.55 -7.95,-4.6 -0.95,0.95 4.65,7.9 z"
         id="path1060" />
    </g>
    <g
       id="Layer0_99_MEMBER_3_FILL">
      <path
         fill="#ffd323"
         stroke="none"
         d="m 1190.25,136.25 q 0,4.1 2.8,6.9 2.9,2.85 6.95,2.85 4,0 6.9,-2.85 2.85,-2.8 2.85,-6.9 0,-4 -2.85,-6.85 -2.9,-2.9 -6.9,-2.9 -4.05,0 -6.95,2.9 -2.8,2.85 -2.8,6.85 m 4.25,-5.45 v 0.05 q 2.3,-2.35 5.5,-2.35 3.15,0 5.5,2.35 2.25,2.25 2.25,5.4 0,3.25 -2.25,5.5 -2.3,2.25 -5.5,2.25 -3.25,0 -5.55,-2.25 h 0.05 q -2.25,-2.25 -2.25,-5.5 0,-3.2 2.25,-5.45 z"
         id="path1061" />
      <path
         fill="#ffcc00"
         stroke="none"
         d="m 1194.5,130.85 v -0.05 q -2.25,2.25 -2.25,5.45 0,3.25 2.25,5.5 h -0.05 q 2.3,2.25 5.55,2.25 3.2,0 5.5,-2.25 2.25,-2.25 2.25,-5.5 0,-3.15 -2.25,-5.4 -2.35,-2.35 -5.5,-2.35 -3.2,0 -5.5,2.35 z"
         id="path1062" />
    </g>
  </defs>
  <g
     transform="translate(-563,-43)"
     id="g1139">
    <use
       xlink:href="#Layer0_64_MEMBER_1_FILL"
       id="use1139" />
  </g>
  <g
     id="g1303"
     transform="translate(-442.85,-25.525)">
    <g
       transform="translate(-736.95,-23.225)"
       id="g1279">
      <use
         xlink:href="#Layer0_98_MEMBER_0_FILL"
         id="use1279" />
    </g>
    <g
       transform="translate(-736.95,-23.225)"
       id="g1280">
      <use
         xlink:href="#Layer0_98_MEMBER_1_FILL"
         id="use1280" />
    </g>
  </g>
  <g
     id="g1304"
     transform="translate(-433.5,-43.025)">
    <g
       transform="translate(-736.95,-23.225)"
       id="g1281">
      <use
         xlink:href="#Layer0_99_MEMBER_0_FILL"
         id="use1281" />
    </g>
    <g
       transform="translate(-736.95,-23.225)"
       id="g1282">
      <use
         xlink:href="#Layer0_99_MEMBER_1_FILL"
         id="use1282" />
    </g>
    <g
       transform="translate(-736.95,-23.225)"
       id="g1283">
      <use
         xlink:href="#Layer0_99_MEMBER_2_MEMBER_0_FILL"
         id="use1283" />
    </g>
    <g
       transform="translate(-736.95,-23.225)"
       id="g1284">
      <use
         xlink:href="#Layer0_99_MEMBER_2_MEMBER_1_FILL"
         id="use1284" />
    </g>
    <g
       transform="translate(-736.95,-23.225)"
       id="g1285">
      <use
         xlink:href="#Layer0_99_MEMBER_3_FILL"
         id="use1285" />
    </g>
  </g>
</svg>
